<svg width="48" height="48" viewBox="0 0 48 48" fill="none" xmlns="http://www.w3.org/2000/svg">
<path fill-rule="evenodd" clip-rule="evenodd" d="M12 15.4286C12 13.535 13.535 12 15.4286 12H16.9961C17.9794 12 18.8365 12.6692 19.075 13.6231L20.3388 18.6782C20.5479 19.5146 20.2354 20.3949 19.5456 20.9122L18.0672 22.021C17.9137 22.1362 17.8803 22.3048 17.9234 22.4225C19.2212 25.9651 22.0349 28.7788 25.5775 30.0766C25.6952 30.1197 25.8638 30.0863 25.979 29.9328L27.0878 28.4544C27.6051 27.7646 28.4854 27.4521 29.3218 27.6612L34.3769 28.925C35.3308 29.1635 36 30.0206 36 31.0039V32.5714C36 34.465 34.465 36 32.5714 36H30C20.0589 36 12 27.9411 12 18V15.4286Z" fill="#E3E4E6" fill-opacity="0.55"/>
</svg>
