<svg width="48" height="48" viewBox="0 0 48 48" fill="none" xmlns="http://www.w3.org/2000/svg">
<path d="M33.9196 14.0741C32.6296 12.7776 31.0931 11.7496 29.3997 11.0502C27.7063 10.3507 25.8898 9.99373 24.0563 10.0001C16.3739 10.0001 10.1126 16.2301 10.1126 23.874C10.1126 26.324 10.7598 28.704 11.9698 30.804L10 38L17.3869 36.068C19.4271 37.174 21.7206 37.762 24.0563 37.762C31.7387 37.762 38 31.532 38 23.888C38 20.1781 36.5508 16.6921 33.9196 14.0741ZM24.0563 35.41C21.9739 35.41 19.9337 34.85 18.1467 33.8L17.7246 33.548L13.3347 34.696L14.5025 30.44L14.2211 30.006C13.0642 28.1678 12.4498 26.043 12.4482 23.874C12.4482 17.5181 17.6543 12.3381 24.0422 12.3381C27.1377 12.3381 30.0503 13.5421 32.2312 15.7261C33.311 16.7956 34.1668 18.0678 34.7489 19.4688C35.331 20.8699 35.6278 22.372 35.6221 23.888C35.6503 30.244 30.4442 35.41 24.0563 35.41ZM30.4161 26.786C30.0643 26.618 28.3477 25.778 28.0382 25.652C27.7146 25.54 27.4894 25.484 27.2503 25.82C27.0111 26.17 26.3497 26.954 26.1528 27.178C25.9558 27.416 25.7447 27.444 25.393 27.262C25.0412 27.094 23.9156 26.716 22.593 25.54C21.5518 24.616 20.8623 23.482 20.6513 23.132C20.4543 22.782 20.6231 22.6 20.806 22.418C20.9608 22.264 21.1578 22.012 21.3266 21.816C21.4955 21.62 21.5658 21.466 21.6784 21.242C21.791 21.004 21.7347 20.8081 21.6503 20.6401C21.5658 20.4721 20.8623 18.7641 20.5809 18.0641C20.2995 17.3921 20.004 17.4761 19.793 17.4621H19.1176C18.8784 17.4621 18.5126 17.5461 18.1889 17.8961C17.8794 18.2461 16.9789 19.0861 16.9789 20.7941C16.9789 22.502 18.2312 24.154 18.4 24.378C18.5688 24.616 20.8623 28.116 24.3518 29.614C25.1819 29.978 25.8291 30.188 26.3357 30.342C27.1658 30.608 27.9256 30.566 28.5307 30.482C29.206 30.384 30.599 29.642 30.8804 28.83C31.1759 28.018 31.1759 27.332 31.0774 27.178C30.9789 27.024 30.7678 26.954 30.4161 26.786Z" fill="#E3E4E6" fill-opacity="0.55"/>
</svg>
