<svg width="22" height="30" viewBox="0 0 22 30" fill="none" xmlns="http://www.w3.org/2000/svg">
<path d="M3.58496 1.22049L5.59832 0.614052C6.51483 0.337547 7.50065 0.404022 8.37174 0.801069C9.24283 1.19811 9.93966 1.8986 10.3322 2.77175L11.585 5.55892C11.9227 6.30977 12.0167 7.14747 11.854 7.95448C11.6913 8.76149 11.28 9.4973 10.6778 10.0587L8.48859 12.0999C8.46239 12.126 8.44031 12.1558 8.4231 12.1885C8.19386 12.6566 8.54196 13.9071 9.63233 15.7968C10.8622 17.9266 11.8119 18.7683 12.2521 18.6385L15.1254 17.7592C15.9123 17.5189 16.7547 17.5309 17.5344 17.7934C18.3142 18.0559 18.9922 18.5558 19.4736 19.2231L21.2541 21.6889C21.813 22.4631 22.072 23.4139 21.9827 24.3647C21.8935 25.3154 21.4622 26.2015 20.7689 26.8581L19.237 28.3075C18.7044 28.8121 18.0575 29.1803 17.3517 29.3807C16.6458 29.5812 15.902 29.6079 15.1836 29.4585C10.918 28.5707 7.09622 25.1359 3.68563 19.2292C0.273822 13.3189 -0.789866 8.28546 0.580678 4.14593C0.8101 3.4529 1.20297 2.82528 1.72609 2.31609C2.2492 1.80691 2.88599 1.43112 3.58496 1.22049ZM4.11256 2.96217C3.69316 3.08849 3.31033 3.31391 2.99641 3.61938C2.6825 3.92485 2.44673 4.30139 2.30902 4.71719C1.12768 8.28424 2.08464 12.8155 5.26236 18.3195C8.43765 23.8199 11.8798 26.9127 15.556 27.6768C15.987 27.7663 16.4333 27.7501 16.8568 27.6297C17.2802 27.5094 17.6683 27.2883 17.9878 26.9855L19.5184 25.5373C19.8919 25.1838 20.1243 24.7067 20.1725 24.1948C20.2207 23.6828 20.0813 23.1708 19.7804 22.7538L17.9999 20.2868C17.7408 19.9276 17.3758 19.6584 16.956 19.5171C16.5362 19.3757 16.0827 19.3692 15.6591 19.4984L12.7785 20.3802C11.1848 20.8544 9.68569 19.5263 8.05802 16.7052C6.67899 14.3183 6.20112 12.5936 6.79057 11.3892C6.90539 11.1547 7.05821 10.9481 7.24904 10.7694L9.43827 8.72815C9.76264 8.42588 9.98421 8.02962 10.0719 7.595C10.1595 7.16038 10.1089 6.70921 9.92706 6.30484L8.67295 3.51888C8.46161 3.0486 8.08633 2.67132 7.61717 2.4575C7.14802 2.24368 6.61707 2.20794 6.12349 2.35695L4.11256 2.96217Z" fill="#CACACA"/>
</svg>
