<svg width="64" height="64" viewBox="0 0 64 64" fill="none" xmlns="http://www.w3.org/2000/svg">
<g filter="url(#filter0_d_378_4037)">
<rect width="64" height="64" rx="8" fill="white" fill-opacity="0.01" shape-rendering="crispEdges"/>
<rect x="0.375" y="0.375" width="63.25" height="63.25" rx="7.625" stroke="#FFA688" stroke-width="0.75" shape-rendering="crispEdges"/>
</g>
<g clip-path="url(#clip0_378_4037)">
<path d="M21.321 19.7343C21.3429 20.0215 21.1393 20.4153 20.8889 20.7878C20.7524 20.9908 20.7871 21.1091 20.9976 21.2295C21.4212 21.4725 21.8374 21.7283 22.2461 21.9952C22.4128 22.1039 22.5402 22.0922 22.7043 21.9915C23.5297 21.4874 24.4105 21.1261 25.3686 20.9556C26.4567 20.7622 27.5027 20.9375 28.5424 21.2561C29.2804 21.4826 30.0301 21.6712 30.7713 21.8876C30.9578 21.9419 31.131 21.9409 31.3186 21.8982C32.7813 21.5673 34.2408 21.2183 35.711 20.922C37.6239 20.5368 39.3962 20.9556 41.0332 21.9824C41.2629 22.1263 41.4339 22.1306 41.6625 22.0011C42.2806 21.6515 42.9083 21.319 43.5376 20.9897C43.7023 20.9039 43.7503 20.8357 43.6565 20.646C43.1662 19.6533 43.5179 18.5796 44.4931 18.0515C45.375 17.5735 46.2579 17.0971 47.143 16.625C48.1821 16.0709 49.2883 16.3906 49.8499 17.427C51.1991 19.9171 52.5366 22.413 53.8784 24.9068C54.9047 26.8144 55.9299 28.7226 56.9567 30.6292C57.1789 31.0416 57.2775 31.4738 57.1869 31.939C57.0772 32.5001 56.7958 32.9567 56.2933 33.2344C55.2915 33.7885 54.2876 34.3411 53.2624 34.8511C52.4983 35.231 51.5647 34.9694 51.0212 34.2623C50.8645 34.0587 50.7537 34.0571 50.5453 34.1727C49.6144 34.6907 48.6744 35.1916 47.7361 35.6957C47.6151 35.7607 47.5176 35.8369 47.4526 35.9632C47.1696 36.5157 46.7764 36.9836 46.308 37.3864C46.1695 37.5053 46.1044 37.6374 46.0847 37.817C45.9467 39.09 45.2924 39.998 44.1217 40.5159C43.9075 40.6108 43.8392 40.7205 43.8392 40.9497C43.8419 42.6527 42.578 44.0168 40.8909 44.1394C40.7252 44.1517 40.5504 44.1362 40.3895 44.0968C40.1897 44.0477 40.1289 44.1282 40.0799 44.3051C39.8327 45.1982 39.2961 45.8691 38.4776 46.3023C37.7412 46.6918 36.976 46.7648 36.1916 46.4478C36.0584 46.3939 35.9534 46.3449 35.8735 46.5304C35.4829 47.4389 34.722 47.8204 33.7996 47.9419C32.176 48.1561 30.6823 47.7607 29.2846 46.9433C28.9473 46.7462 28.6079 46.5527 28.2754 46.3481C28.1422 46.2666 28.0266 46.2586 27.8773 46.3135C26.6459 46.7675 25.3319 46.3572 24.5821 45.2808C24.466 45.114 24.3679 45.073 24.1692 45.1396C22.7976 45.5989 21.3546 44.9824 20.7285 43.671C20.6443 43.4946 20.567 43.4307 20.3533 43.4531C18.6769 43.6305 17.202 42.2461 17.2649 40.557C17.2728 40.347 17.1578 40.3294 17.0187 40.2884C15.7084 39.9042 14.859 38.7937 14.891 37.4989C14.9064 36.8648 15.1414 36.309 15.5107 35.8001C15.7217 35.5092 15.7126 35.5001 15.403 35.3088C14.6703 34.8559 13.935 34.4077 13.2055 33.9505C13.0744 33.8685 12.9886 33.8583 12.8581 33.9676C12.1867 34.5282 11.3575 34.5862 10.6051 34.1376C9.75096 33.6287 8.89945 33.1145 8.04633 32.604C6.97635 31.964 6.69659 30.8695 7.34082 29.7937C8.84083 27.2871 10.3456 24.7837 11.8478 22.2787C12.898 20.5272 13.9462 18.7751 14.9959 17.0236C15.6151 15.9941 16.7112 15.708 17.7482 16.317C18.6359 16.8387 19.5183 17.37 20.397 17.9076C21.0056 18.2801 21.3013 18.8385 21.321 19.7338V19.7343ZM26.8164 22.9267C26.8111 22.9038 26.8063 22.8814 26.801 22.8585C26.4658 22.8361 26.1306 22.8265 25.7955 22.8734C24.8017 23.0119 23.9379 23.4526 23.1354 24.0292C22.7283 24.3217 22.3244 24.3356 21.897 24.067C21.2507 23.6604 20.5936 23.2709 19.9473 22.8649C19.7821 22.7609 19.691 22.7716 19.5913 22.9485C19.3334 23.4046 19.0601 23.8517 18.7904 24.3009C17.2547 26.8587 15.7196 29.4169 14.1796 31.972C14.0821 32.1335 14.0805 32.2198 14.26 32.3269C15.1206 32.8422 15.9743 33.3702 16.8252 33.9015C16.9494 33.9788 17.0405 33.9686 17.1657 33.9058C18.4404 33.2637 19.8764 33.5914 20.7386 34.7221C20.8393 34.8543 20.9139 34.8969 21.0844 34.8244C22.6047 34.1781 24.2049 34.825 24.8544 36.3521C24.9423 36.5584 25.0462 36.6255 25.2663 36.625C26.6955 36.6218 27.8262 37.5687 28.0745 38.9712C28.1118 39.1822 28.1848 39.2765 28.4155 39.3197C30.4623 39.6991 31.407 41.9531 30.2576 43.6897C30.052 44.0009 29.85 44.3147 29.6353 44.6195C29.5377 44.7586 29.5335 44.8465 29.696 44.9334C30.0722 45.1332 30.433 45.365 30.8172 45.5462C31.6937 45.9602 32.614 46.1515 33.5864 46.0028C33.7458 45.9783 33.9051 45.9469 34.0245 45.8291C34.2776 45.5787 34.2051 45.2776 33.8294 45.0463C33.0205 44.5481 32.2079 44.0557 31.3985 43.558C30.9935 43.3087 30.8108 42.9074 30.9077 42.4998C31.0756 41.7943 31.7854 41.5182 32.4397 41.9158C33.8438 42.7683 35.2431 43.6289 36.6456 44.4842C36.7809 44.5668 36.9094 44.6621 37.0783 44.6787C37.5424 44.7239 37.9905 44.3989 38.1744 43.8756C38.3577 43.355 38.2383 43.0012 37.7678 42.7209C36.3259 41.8625 34.8808 41.0099 33.4388 40.1515C32.899 39.8301 32.7403 39.2648 33.0392 38.7623C33.3221 38.2864 33.9024 38.1649 34.4342 38.4767C36.4186 39.6388 38.4051 40.7973 40.3533 42.0202C40.6453 42.2035 40.9357 42.2365 41.2319 42.0692C41.6497 41.8332 41.8735 41.4644 41.898 40.9848C41.9135 40.6785 41.7957 40.4381 41.5229 40.2713C40.7497 39.7998 39.9845 39.3154 39.2108 38.8443C38.1264 38.1841 37.0362 37.533 35.9502 36.8743C35.5388 36.625 35.3438 36.2259 35.4248 35.8289C35.5687 35.1271 36.3024 34.8143 36.9376 35.1964C38.8325 36.3351 40.7236 37.4807 42.6169 38.6227C43.0954 38.9115 43.6298 38.7607 43.9378 38.2502C44.2144 37.7919 44.2575 37.1552 43.7162 36.8264C40.1188 34.6417 36.538 32.4303 32.9379 30.2493C32.3577 29.8976 31.8834 29.4739 31.5456 28.8953C31.4438 28.7205 31.3383 28.6826 31.1369 28.7381C29.7717 29.1121 28.3932 29.3962 26.964 29.3461C24.8992 29.2741 23.4636 27.7725 23.518 25.7279C23.5526 24.432 24.2954 23.5203 25.5541 23.2267C25.975 23.1286 26.3949 23.0263 26.8154 22.9261L26.8164 22.9267ZM25.4699 25.9086C25.4736 26.6636 25.9878 27.2445 26.7306 27.359C27.2827 27.4437 27.8283 27.3963 28.3745 27.3254C29.4253 27.1885 30.4484 26.9333 31.4561 26.6093C32.0454 26.4201 32.4706 26.597 32.7722 27.1421C32.8324 27.2508 32.8836 27.3659 32.9545 27.4672C33.1953 27.8141 33.3706 28.2137 33.7538 28.4482C36.8587 30.3473 39.9637 32.247 43.065 34.152C43.7529 34.5745 44.4686 34.956 45.1139 35.442C45.3084 35.588 45.3861 35.5854 45.5204 35.3925C46.0021 34.6981 46.1961 33.9143 46.2691 33.09C46.3187 32.5305 46.6975 32.1399 47.2176 32.1217C47.7126 32.1047 48.1309 32.4697 48.2071 33.0127C48.2327 33.1944 48.2844 33.1939 48.4219 33.1182C48.8183 32.8997 49.2206 32.6919 49.6187 32.4761C49.9288 32.3082 49.9272 32.3061 49.7599 31.9949C49.154 30.8695 48.5476 29.7441 47.9418 28.6187C46.9112 26.7036 45.878 24.7896 44.8554 22.8707C44.7329 22.6411 44.6183 22.6203 44.3993 22.7407C43.56 23.2038 42.7069 23.6423 41.8682 24.1064C41.4216 24.3537 41.0119 24.3473 40.6042 24.035C40.4284 23.9002 40.2419 23.7776 40.0533 23.661C38.7797 22.8728 37.4199 22.5425 35.9289 22.8675C32.6422 23.5842 29.3662 24.3457 26.0901 25.1077C25.6063 25.2201 25.4672 25.4066 25.4699 25.9086ZM19.3228 19.608C19.3196 19.4822 19.2173 19.4636 19.1464 19.4204C18.4318 18.9893 17.7093 18.5716 17.0043 18.1256C16.7666 17.9753 16.6691 18.027 16.5359 18.2508C15.2469 20.4174 13.9467 22.5771 12.6503 24.7389C11.4817 26.6876 10.3153 28.6379 9.1403 30.5834C9.01028 30.7986 8.99909 30.9169 9.24794 31.0576C9.96624 31.4642 10.6712 31.8947 11.373 32.329C11.5584 32.4436 11.6517 32.4303 11.7652 32.2352C12.2885 31.3384 12.8256 30.4496 13.36 29.5587C15.3087 26.3077 17.2585 23.0578 19.2077 19.8068C19.2487 19.7385 19.2876 19.6693 19.3228 19.6075V19.608ZM55.2063 31.4983C55.1844 31.4551 55.1578 31.3997 55.1285 31.3454C53.654 28.6017 52.1791 25.8585 50.7046 23.1153C49.8979 21.6148 49.0874 20.1158 48.2897 18.6105C48.1682 18.3819 48.0707 18.3265 47.8277 18.4645C47.1185 18.8679 46.397 19.251 45.6718 19.6256C45.4506 19.7396 45.432 19.8403 45.5481 20.0556C47.1222 22.9672 48.6872 25.8835 50.2549 28.7983C50.978 30.1427 51.7027 31.4855 52.4258 32.8294C52.4849 32.9397 52.5233 33.0612 52.6986 32.9647C53.4915 32.5283 54.2892 32.1004 55.0848 31.6688C55.1471 31.6352 55.2127 31.6011 55.2063 31.4972V31.4983ZM19.2199 40.6433C19.2247 41.0424 19.4629 41.3589 19.8333 41.4799C20.1993 41.5992 20.55 41.4863 20.7839 41.1383C21.5176 40.0497 22.2471 38.9578 22.9676 37.8601C23.2372 37.4493 23.113 36.933 22.7096 36.6671C22.3121 36.4049 21.8054 36.5157 21.5267 36.9324C20.8116 38.0019 20.1002 39.0735 19.3856 40.1435C19.2791 40.3028 19.2093 40.4712 19.2199 40.6433ZM23.2985 43.3428C23.6107 43.3358 23.834 43.1856 24.0024 42.9309C24.4281 42.2861 24.8587 41.6445 25.2866 41.0014C25.5423 40.6172 25.8098 40.2399 26.048 39.8445C26.2926 39.4385 26.1493 38.9376 25.7454 38.6877C25.3489 38.442 24.8731 38.5454 24.597 38.9387C24.5102 39.0623 24.4287 39.1896 24.345 39.3149C23.7546 40.2021 23.1636 41.0882 22.5748 41.9765C22.3766 42.2749 22.3425 42.5925 22.5258 42.9064C22.6947 43.1957 22.9601 43.3412 23.2985 43.3428ZM28.7987 42.1316C28.8008 41.7245 28.5749 41.409 28.2067 41.2817C27.8385 41.1548 27.4809 41.2609 27.2486 41.5976C26.8814 42.13 26.5233 42.6692 26.1738 43.2133C25.9052 43.631 26.0193 44.1399 26.4226 44.4042C26.8377 44.676 27.3173 44.5785 27.6061 44.1538C27.9546 43.6406 28.294 43.1211 28.6388 42.6058C28.7401 42.4545 28.8072 42.2941 28.7992 42.1321L28.7987 42.1316ZM17.802 38.434C17.972 38.4308 18.1963 38.3584 18.337 38.158C18.6583 37.7008 18.9801 37.2415 19.2647 36.7614C19.4848 36.39 19.3233 35.9168 18.9439 35.6695C18.5869 35.4367 18.0817 35.5017 17.8409 35.839C17.5366 36.2653 17.2393 36.698 16.9718 37.1477C16.6307 37.7205 17.0618 38.4351 17.802 38.434Z" fill="white"/>
</g>
<defs>
<filter id="filter0_d_378_4037" x="-8.2" y="-8.2" width="80.4" height="80.4" filterUnits="userSpaceOnUse" color-interpolation-filters="sRGB">
<feFlood flood-opacity="0" result="BackgroundImageFix"/>
<feColorMatrix in="SourceAlpha" type="matrix" values="0 0 0 0 0 0 0 0 0 0 0 0 0 0 0 0 0 0 127 0" result="hardAlpha"/>
<feMorphology radius="0.2" operator="dilate" in="SourceAlpha" result="effect1_dropShadow_378_4037"/>
<feOffset/>
<feGaussianBlur stdDeviation="4"/>
<feComposite in2="hardAlpha" operator="out"/>
<feColorMatrix type="matrix" values="0 0 0 0 1 0 0 0 0 0.65098 0 0 0 0 0.533333 0 0 0 1 0"/>
<feBlend mode="normal" in2="BackgroundImageFix" result="effect1_dropShadow_378_4037"/>
<feBlend mode="normal" in="SourceGraphic" in2="effect1_dropShadow_378_4037" result="shape"/>
</filter>
<clipPath id="clip0_378_4037">
<rect width="50.2218" height="32" fill="white" transform="translate(7 16)"/>
</clipPath>
</defs>
</svg>
