<svg width="64" height="64" viewBox="0 0 64 64" fill="none" xmlns="http://www.w3.org/2000/svg">
<g filter="url(#filter0_d_378_4044)">
<rect width="64" height="64" rx="8" fill="white" fill-opacity="0.01" shape-rendering="crispEdges"/>
<rect x="0.375" y="0.375" width="63.25" height="63.25" rx="7.625" stroke="#FFA688" stroke-width="0.75" shape-rendering="crispEdges"/>
</g>
<path d="M22 37V36H20V37C20 38.8565 20.7375 40.637 22.0503 41.9497C23.363 43.2625 25.1435 44 27 44H30V42H27C25.6739 42 24.4021 41.4732 23.4645 40.5355C22.5268 39.5979 22 38.3261 22 37ZM40 27V28H42V27C42 25.1435 41.2625 23.363 39.9497 22.0503C38.637 20.7375 36.8565 20 35 20H32V22H35C35.6566 22 36.3068 22.1293 36.9134 22.3806C37.52 22.6319 38.0712 23.0002 38.5355 23.4645C38.9998 23.9288 39.3681 24.48 39.6194 25.0866C39.8707 25.6932 40 26.3434 40 27ZM27 27H21C20.2044 27 19.4413 27.3161 18.8787 27.8787C18.3161 28.4413 18 29.2044 18 30V32H20V30C20 29.7348 20.1054 29.4804 20.2929 29.2929C20.4804 29.1054 20.7348 29 21 29H27C27.2652 29 27.5196 29.1054 27.7071 29.2929C27.8946 29.4804 28 29.7348 28 30V32H30V30C30 29.2044 29.6839 28.4413 29.1213 27.8787C28.5587 27.3161 27.7956 27 27 27ZM24 26C24.7911 26 25.5645 25.7654 26.2223 25.3259C26.8801 24.8864 27.3928 24.2616 27.6955 23.5307C27.9983 22.7998 28.0775 21.9956 27.9231 21.2196C27.7688 20.4437 27.3878 19.731 26.8284 19.1716C26.269 18.6122 25.5563 18.2312 24.7804 18.0769C24.0044 17.9225 23.2002 18.0017 22.4693 18.3045C21.7384 18.6072 21.1136 19.1199 20.6741 19.7777C20.2346 20.4355 20 21.2089 20 22C20 23.0609 20.4214 24.0783 21.1716 24.8284C21.9217 25.5786 22.9391 26 24 26ZM24 20C24.3956 20 24.7822 20.1173 25.1111 20.3371C25.44 20.5568 25.6964 20.8692 25.8478 21.2346C25.9991 21.6001 26.0387 22.0022 25.9616 22.3902C25.8844 22.7781 25.6939 23.1345 25.4142 23.4142C25.1345 23.6939 24.7781 23.8844 24.3902 23.9616C24.0022 24.0387 23.6001 23.9991 23.2346 23.8478C22.8692 23.6964 22.5568 23.44 22.3371 23.1111C22.1173 22.7822 22 22.3956 22 22C22 21.4696 22.2107 20.9609 22.5858 20.5858C22.9609 20.2107 23.4696 20 24 20ZM43 41H37C36.2044 41 35.4413 41.3161 34.8787 41.8787C34.3161 42.4413 34 43.2044 34 44V46H36V44C36 43.7348 36.1054 43.4804 36.2929 43.2929C36.4804 43.1054 36.7348 43 37 43H43C43.2652 43 43.5196 43.1054 43.7071 43.2929C43.8946 43.4804 44 43.7348 44 44V46H46V44C46 43.2044 45.6839 42.4413 45.1213 41.8787C44.5587 41.3161 43.7956 41 43 41ZM36 36C36 36.7911 36.2346 37.5645 36.6741 38.2223C37.1136 38.8801 37.7384 39.3928 38.4693 39.6955C39.2002 39.9983 40.0044 40.0775 40.7804 39.9231C41.5563 39.7688 42.269 39.3878 42.8284 38.8284C43.3878 38.269 43.7688 37.5563 43.9231 36.7804C44.0775 36.0044 43.9983 35.2002 43.6955 34.4693C43.3928 33.7384 42.8801 33.1136 42.2223 32.6741C41.5645 32.2346 40.7911 32 40 32C38.9391 32 37.9217 32.4214 37.1716 33.1716C36.4214 33.9217 36 34.9391 36 36ZM42 36C42 36.3956 41.8827 36.7822 41.6629 37.1111C41.4432 37.44 41.1308 37.6964 40.7654 37.8478C40.3999 37.9991 39.9978 38.0387 39.6098 37.9616C39.2219 37.8844 38.8655 37.6939 38.5858 37.4142C38.3061 37.1345 38.1156 36.7781 38.0384 36.3902C37.9613 36.0022 38.0009 35.6001 38.1522 35.2346C38.3036 34.8692 38.56 34.5568 38.8889 34.3371C39.2178 34.1173 39.6044 34 40 34C40.5304 34 41.0391 34.2107 41.4142 34.5858C41.7893 34.9609 42 35.4696 42 36Z" fill="white"/>
<defs>
<filter id="filter0_d_378_4044" x="-8.2" y="-8.2" width="80.4" height="80.4" filterUnits="userSpaceOnUse" color-interpolation-filters="sRGB">
<feFlood flood-opacity="0" result="BackgroundImageFix"/>
<feColorMatrix in="SourceAlpha" type="matrix" values="0 0 0 0 0 0 0 0 0 0 0 0 0 0 0 0 0 0 127 0" result="hardAlpha"/>
<feMorphology radius="0.2" operator="dilate" in="SourceAlpha" result="effect1_dropShadow_378_4044"/>
<feOffset/>
<feGaussianBlur stdDeviation="4"/>
<feComposite in2="hardAlpha" operator="out"/>
<feColorMatrix type="matrix" values="0 0 0 0 1 0 0 0 0 0.65098 0 0 0 0 0.533333 0 0 0 1 0"/>
<feBlend mode="normal" in2="BackgroundImageFix" result="effect1_dropShadow_378_4044"/>
<feBlend mode="normal" in="SourceGraphic" in2="effect1_dropShadow_378_4044" result="shape"/>
</filter>
</defs>
</svg>
