<svg width="64" height="64" viewBox="0 0 64 64" fill="none" xmlns="http://www.w3.org/2000/svg">
<g filter="url(#filter0_d_378_4050)">
<rect width="64" height="64" rx="8" fill="white" fill-opacity="0.01" shape-rendering="crispEdges"/>
<rect x="0.375" y="0.375" width="63.25" height="63.25" rx="7.625" stroke="#FFA688" stroke-width="0.75" shape-rendering="crispEdges"/>
</g>
<path d="M43 40C42.5545 40.002 42.1153 40.1046 41.715 40.3L37.415 36H34V38H36.586L40.301 41.715C40.1065 42.1157 40.0037 42.5546 40 43C40 43.5933 40.1759 44.1734 40.5056 44.6667C40.8352 45.1601 41.3038 45.5446 41.8519 45.7716C42.4001 45.9987 43.0033 46.0581 43.5853 45.9424C44.1672 45.8266 44.7018 45.5409 45.1213 45.1213C45.5409 44.7018 45.8266 44.1672 45.9424 43.5853C46.0581 43.0033 45.9987 42.4001 45.7716 41.852C45.5446 41.3038 45.1601 40.8352 44.6667 40.5056C44.1734 40.1759 43.5933 40 43 40ZM43 44C42.8022 44 42.6089 43.9414 42.4444 43.8315C42.28 43.7216 42.1518 43.5654 42.0761 43.3827C42.0004 43.2 41.9806 42.9989 42.0192 42.8049C42.0578 42.6109 42.153 42.4327 42.2929 42.2929C42.4327 42.153 42.6109 42.0578 42.8049 42.0192C42.9989 41.9806 43.2 42.0004 43.3827 42.0761C43.5654 42.1518 43.7216 42.28 43.8315 42.4444C43.9414 42.6089 44 42.8022 44 43C44 43.2652 43.8946 43.5196 43.7071 43.7071C43.5196 43.8946 43.2652 44 43 44ZM43 29C42.3816 29.0018 41.7789 29.1951 41.2747 29.5532C40.7704 29.9113 40.3895 30.4167 40.184 31H34V33H40.184C40.3682 33.5172 40.6911 33.9738 41.1172 34.3199C41.5434 34.666 42.0565 34.8883 42.6005 34.9625C43.1444 35.0367 43.6983 34.96 44.2016 34.7407C44.7049 34.5214 45.1383 34.168 45.4543 33.7191C45.7704 33.2702 45.9569 32.743 45.9936 32.1952C46.0304 31.6475 45.9158 31.1001 45.6625 30.6131C45.4091 30.126 45.0268 29.7179 44.5573 29.4334C44.0877 29.149 43.549 28.999 43 29ZM43 33C42.8022 33 42.6089 32.9414 42.4444 32.8315C42.28 32.7216 42.1518 32.5654 42.0761 32.3827C42.0004 32.2 41.9806 31.9989 42.0192 31.8049C42.0578 31.6109 42.153 31.4327 42.2929 31.2929C42.4327 31.153 42.6109 31.0578 42.8049 31.0192C42.9989 30.9806 43.2 31.0004 43.3827 31.0761C43.5654 31.1518 43.7216 31.28 43.8315 31.4444C43.9414 31.6089 44 31.8022 44 32C44 32.2652 43.8946 32.5196 43.7071 32.7071C43.5196 32.8946 43.2652 33 43 33ZM43 18C42.2046 18.0008 41.442 18.3171 40.8796 18.8796C40.3171 19.442 40.0008 20.2046 40 21C40.0047 21.4789 40.1241 21.9497 40.348 22.373L36.596 26H34V28H37.404L41.804 23.748C42.2127 23.9262 42.6561 24.0111 43.1017 23.9964C43.5474 23.9817 43.9841 23.8677 44.3802 23.6629C44.7763 23.4581 45.1217 23.1676 45.3914 22.8124C45.661 22.4573 45.848 22.0465 45.9389 21.6099C46.0297 21.1734 46.022 20.7221 45.9165 20.2888C45.8109 19.8556 45.61 19.4514 45.3285 19.1056C45.047 18.7598 44.6919 18.4811 44.2891 18.2899C43.8863 18.0986 43.4459 17.9996 43 18ZM43 22C42.8022 22 42.6089 21.9414 42.4444 21.8315C42.28 21.7216 42.1518 21.5654 42.0761 21.3827C42.0004 21.2 41.9806 20.9989 42.0192 20.8049C42.0578 20.6109 42.153 20.4327 42.2929 20.2929C42.4327 20.153 42.6109 20.0578 42.8049 20.0192C42.9989 19.9806 43.2 20.0004 43.3827 20.0761C43.5654 20.1518 43.7216 20.28 43.8315 20.4444C43.9414 20.6089 44 20.8022 44 21C44 21.2652 43.8946 21.5196 43.7071 21.7071C43.5196 21.8946 43.2652 22 43 22Z" fill="white"/>
<path d="M34 22H36V20H34C33.4302 20.0022 32.8674 20.1267 32.3499 20.3651C31.8323 20.6035 31.372 20.9503 31 21.382C30.628 20.9503 30.1677 20.6035 29.6501 20.3651C29.1326 20.1267 28.5698 20.0022 28 20H27C24.6139 20.0026 22.3262 20.9517 20.639 22.639C18.9517 24.3262 18.0026 26.6139 18 29V35C18.0026 37.3861 18.9517 39.6738 20.639 41.361C22.3262 43.0483 24.6139 43.9974 27 44H28C28.5698 43.9978 29.1326 43.8733 29.6501 43.6349C30.1677 43.3965 30.628 43.0497 31 42.618C31.372 43.0497 31.8323 43.3965 32.3499 43.6349C32.8674 43.8733 33.4302 43.9978 34 44H36V42H34C33.4696 42 32.9609 41.7893 32.5858 41.4142C32.2107 41.0391 32 40.5304 32 40V24C32 23.4696 32.2107 22.9609 32.5858 22.5858C32.9609 22.2107 33.4696 22 34 22ZM28 42H27C25.3184 41.997 23.6941 41.3892 22.4236 40.2876C21.1531 39.186 20.3212 37.6642 20.08 36H22V34H20V30H23C23.7954 29.9992 24.558 29.6829 25.1204 29.1204C25.6829 28.558 25.9992 27.7954 26 27V25H24V27C24 27.2652 23.8946 27.5196 23.7071 27.7071C23.5196 27.8946 23.2652 28 23 28H20.08C20.3212 26.3358 21.1531 24.814 22.4236 23.7124C23.6941 22.6108 25.3184 22.003 27 22H28C28.5304 22 29.0391 22.2107 29.4142 22.5858C29.7893 22.9609 30 23.4696 30 24V28H28V30H30V34H28C27.2046 34.0008 26.442 34.3171 25.8796 34.8796C25.3171 35.442 25.0008 36.2046 25 37V39H27V37C27 36.7348 27.1054 36.4804 27.2929 36.2929C27.4804 36.1054 27.7348 36 28 36H30V40C30 40.5304 29.7893 41.0391 29.4142 41.4142C29.0391 41.7893 28.5304 42 28 42Z" fill="white"/>
<defs>
<filter id="filter0_d_378_4050" x="-8.2" y="-8.2" width="80.4" height="80.4" filterUnits="userSpaceOnUse" color-interpolation-filters="sRGB">
<feFlood flood-opacity="0" result="BackgroundImageFix"/>
<feColorMatrix in="SourceAlpha" type="matrix" values="0 0 0 0 0 0 0 0 0 0 0 0 0 0 0 0 0 0 127 0" result="hardAlpha"/>
<feMorphology radius="0.2" operator="dilate" in="SourceAlpha" result="effect1_dropShadow_378_4050"/>
<feOffset/>
<feGaussianBlur stdDeviation="4"/>
<feComposite in2="hardAlpha" operator="out"/>
<feColorMatrix type="matrix" values="0 0 0 0 1 0 0 0 0 0.65098 0 0 0 0 0.533333 0 0 0 1 0"/>
<feBlend mode="normal" in2="BackgroundImageFix" result="effect1_dropShadow_378_4050"/>
<feBlend mode="normal" in="SourceGraphic" in2="effect1_dropShadow_378_4050" result="shape"/>
</filter>
</defs>
</svg>
