<svg width="64" height="64" viewBox="0 0 64 64" fill="none" xmlns="http://www.w3.org/2000/svg">
<g filter="url(#filter0_d_378_4031)">
<rect width="64" height="64" rx="8" fill="white" fill-opacity="0.01" shape-rendering="crispEdges"/>
<rect x="0.375" y="0.375" width="63.25" height="63.25" rx="7.625" stroke="#FFA688" stroke-width="0.75" shape-rendering="crispEdges"/>
</g>
<path d="M47.1859 31.8898C47.2005 30.9684 47.1022 29.9781 46.9057 29.0015C46.5289 27.1304 45.8192 25.3883 44.7977 23.7745C44.697 23.6154 44.6012 23.5505 44.3852 23.5967C43.6105 23.7632 42.8456 23.3029 42.6231 22.5731C42.3925 21.8157 42.779 21.0096 43.522 20.6995C44.0588 20.4747 44.7604 20.6322 45.1818 21.0721C45.6178 21.5267 45.7388 22.2062 45.4392 22.7639C45.3068 23.0098 45.3385 23.173 45.4831 23.3987C46.3462 24.7462 46.991 26.192 47.41 27.74C47.7185 28.8773 47.8826 30.0325 47.9695 31.2063C48.0409 32.1715 47.9751 33.1294 47.8509 34.0775C47.5699 36.2149 46.8797 38.2216 45.7876 40.0879C44.9772 41.4727 43.9784 42.7091 42.7985 43.7863C41.4944 44.9763 40.0222 45.9221 38.3966 46.6324C37.3271 47.0991 36.2204 47.436 35.0852 47.6771C34.3365 47.8362 33.5699 47.893 32.8066 47.9645C31.9865 48.0416 31.172 47.9831 30.3617 47.902C29.1915 47.7851 28.045 47.5383 26.9252 47.1649C25.4246 46.6648 24.0417 45.9375 22.7425 45.0453C22.5712 44.9276 22.4104 44.7961 22.2447 44.6703C22.1432 44.5932 22.1221 44.512 22.1976 44.3951C22.5224 43.8926 22.5492 43.8983 23.0308 44.2596C23.9224 44.9285 24.8903 45.4699 25.9094 45.9212C26.6507 46.25 27.4157 46.5147 28.1993 46.7168C29.0316 46.9303 29.8801 47.0602 30.7368 47.1397C31.2305 47.1852 31.7242 47.1844 32.2187 47.1827C33.1087 47.1795 33.9873 47.0691 34.8602 46.9011C36.0823 46.6665 37.2565 46.2874 38.3852 45.7646C39.4554 45.2686 40.4526 44.6549 41.384 43.93C42.563 43.0119 43.5813 41.9379 44.4372 40.717C45.3174 39.4604 45.9922 38.0982 46.4607 36.6338C46.7124 35.848 46.9016 35.0484 47.0267 34.235C47.1412 33.4849 47.1915 32.7275 47.1842 31.8906L47.1859 31.8898ZM44.0766 21.4155C43.6641 21.4147 43.3572 21.7159 43.3572 22.1242C43.3572 22.4944 43.7072 22.8467 44.0872 22.8597C44.4258 22.871 44.8115 22.4733 44.8123 22.1112C44.8131 21.7134 44.4997 21.4171 44.0766 21.4155Z" fill="white" stroke="white" stroke-width="0.5"/>
<path d="M21.2843 41.7491C21.2843 42.5219 20.6777 43.1851 19.8868 43.2598C19.251 43.3199 18.4707 42.8629 18.2904 42.0917C18.1857 41.6436 18.2774 41.2564 18.5121 40.8862C18.5787 40.7807 18.5779 40.7109 18.5088 40.6005C17.7918 39.4551 17.2056 38.248 16.7922 36.9572C16.3546 35.5935 16.1077 34.1988 16.0224 32.7685C15.9583 31.7027 16.0371 30.6514 16.1897 29.6018C16.4739 27.6462 17.1073 25.8116 18.085 24.0931C18.5535 23.2692 19.0927 22.4972 19.6944 21.7641C20.5689 20.6999 21.5775 19.781 22.694 18.9806C24.0785 17.987 25.5896 17.2458 27.2161 16.7344C28.0785 16.4633 28.9571 16.2579 29.8519 16.1443C30.8247 16.0201 31.8024 15.9665 32.7874 16.0217C33.4751 16.0598 34.1548 16.1305 34.8312 16.2506C36.0265 16.4633 37.1844 16.8042 38.2993 17.2864C39.1763 17.6655 40.0127 18.1193 40.8109 18.6437C41.1219 18.8483 41.4191 19.0723 41.722 19.2874C41.8527 19.38 41.8625 19.4733 41.761 19.6089C41.4142 20.0757 41.428 20.0675 40.9465 19.7087C40.0119 19.0122 38.9985 18.4521 37.9266 17.9943C37.0285 17.6111 36.0996 17.3254 35.1455 17.1192C34.3952 16.9568 33.6343 16.8854 32.8718 16.8132C31.9006 16.7214 30.9368 16.8091 29.9794 16.9252C29.2015 17.0202 28.4358 17.2109 27.6773 17.4301C26.4147 17.7946 25.2348 18.3328 24.1093 18.9984C23.0496 19.6251 22.0923 20.389 21.221 21.2544C20.3286 22.1416 19.5515 23.1295 18.9197 24.2157C18.1532 25.5316 17.5766 26.9286 17.2226 28.4207C16.9465 29.5839 16.8117 30.7602 16.7922 31.9462C16.7817 32.5721 16.8272 33.2028 16.9124 33.8287C16.9814 34.332 17.0594 34.8336 17.1641 35.3296C17.2673 35.8191 17.4118 36.2989 17.5661 36.7754C17.9412 37.933 18.4691 39.0183 19.0992 40.0566C19.2015 40.2254 19.2957 40.2774 19.5101 40.2376C20.3984 40.0712 21.2941 40.7506 21.2843 41.7483V41.7491ZM19.7529 42.4497C20.1589 42.457 20.4942 42.1315 20.4983 41.7256C20.5015 41.3749 20.1353 41.0039 19.7821 40.999C19.4037 40.9942 19.0561 41.3351 19.0464 41.7207C19.0358 42.1242 19.3452 42.4424 19.7537 42.4497H19.7529Z" fill="white" stroke="white" stroke-width="0.5"/>
<path d="M36.8642 28.9821C36.8414 30.8743 36.247 32.549 34.9632 33.9606C34.882 34.0499 34.8268 34.1465 34.8357 34.2683C34.8512 34.468 34.8666 34.6677 34.8918 34.8666C34.9113 35.0208 35.0314 35.0882 35.1589 35.1491C35.5747 35.3455 36.0164 35.4738 36.4484 35.624C37.5235 35.9982 38.61 36.3391 39.6575 36.7913C40.1723 37.0137 40.6287 37.3108 41.0103 37.7216C41.215 37.9416 41.2068 38.0203 40.9632 38.194C40.6043 38.4489 40.6076 38.4457 40.2909 38.1266C40.0302 37.8636 39.7143 37.6802 39.3765 37.5341C38.1065 36.9845 36.7813 36.5867 35.478 36.1297C35.1938 36.0298 34.9169 35.9146 34.6417 35.792C34.2178 35.6029 34.1236 35.214 34.0757 34.8219C34.0408 34.5338 33.9994 34.2415 34.0302 33.9444C34.044 33.8121 34.0781 33.7179 34.1707 33.627C35.0444 32.7722 35.595 31.7396 35.8808 30.5553C36.0611 29.8101 36.1512 29.0567 36.027 28.3002C35.8142 27.003 35.2466 25.9063 34.0944 25.1927C33.6664 24.9281 33.1817 24.8039 32.6806 24.7113C32.0172 24.5887 31.3774 24.6626 30.748 24.8339C29.6859 25.1237 28.9324 25.804 28.437 26.7797C28.0391 27.5631 27.8613 28.3935 27.9092 29.2702C27.9563 30.1283 28.1407 30.953 28.502 31.7364C28.8349 32.4589 29.2564 33.1172 29.8435 33.6603C29.9506 33.7593 29.9458 33.8868 29.9482 34.0175C29.9547 34.4055 29.9206 34.7886 29.8394 35.1677C29.7436 35.6142 29.3968 35.7896 29.0193 35.9365C28.1715 36.2661 27.3002 36.5258 26.4435 36.8303C25.6884 37.0981 24.9234 37.3457 24.2178 37.7354C23.9531 37.8815 23.7095 38.0585 23.53 38.3085C23.4285 38.4505 23.3229 38.4692 23.1995 38.332C23.1524 38.2801 23.0899 38.2403 23.0314 38.1989C22.7765 38.0179 22.7765 37.9546 22.9851 37.7118C23.4204 37.2045 24.0018 36.9333 24.5994 36.6809C25.88 36.1394 27.219 35.7603 28.5191 35.2749C28.5994 35.2449 28.6758 35.2035 28.757 35.1767C29.0306 35.089 29.0907 34.8966 29.1256 34.6222C29.176 34.2326 29.0298 33.9874 28.7903 33.696C27.8443 32.5465 27.2726 31.2274 27.1662 29.7264C27.1459 29.4415 27.0704 29.1598 27.0915 28.8717C27.2166 27.141 27.8102 25.6408 29.2962 24.6293C30.2633 23.971 31.3611 23.7867 32.5174 23.8971C33.1378 23.9564 33.729 24.1041 34.2828 24.3923C34.9429 24.7357 35.4805 25.2138 35.9076 25.8267C36.3591 26.4745 36.6335 27.1897 36.7838 27.9552C36.8495 28.2912 36.869 28.637 36.8633 28.9829L36.8642 28.9821Z" fill="white" stroke="white" stroke-width="0.5"/>
<path d="M44.6502 32.0277C44.6421 33.4849 44.3953 34.8981 43.904 36.2733C43.537 37.2994 43.0278 38.2459 42.4326 39.1526C42.3449 39.2866 42.2507 39.3142 42.1127 39.2135C41.5914 38.8328 41.6271 38.9424 41.9519 38.4334C42.552 37.4909 43.0376 36.4965 43.3551 35.4258C43.6263 34.5117 43.8098 33.579 43.8285 32.6203C43.8463 31.7314 43.852 30.8417 43.6856 29.965C43.4972 28.9722 43.2195 28.0046 42.7891 27.0849C42.4789 26.4216 42.1354 25.7795 41.7083 25.1837C41.2487 24.5432 40.746 23.9409 40.1687 23.3994C39.6969 22.957 39.2073 22.543 38.6705 22.1809C37.6726 21.508 36.6007 20.9909 35.4468 20.6418C34.068 20.2238 32.6575 20.0533 31.2243 20.1458C30.3189 20.2043 29.4249 20.3707 28.5504 20.6345C27.6466 20.9065 26.7948 21.2921 25.9754 21.7531C25.7968 21.8538 25.6482 21.9423 25.7042 22.2223C25.7749 22.5722 25.7318 22.9335 25.5361 23.2598C25.2316 23.7671 24.6389 24.0683 24.0631 23.9928C23.4168 23.9084 22.8898 23.5025 22.772 22.8961C22.6437 22.2361 22.7266 21.758 23.3023 21.2774C23.7164 20.9324 24.5081 20.8529 24.9978 21.1857C25.1529 21.2912 25.2584 21.258 25.4022 21.1727C26.4911 20.5233 27.6474 20.0379 28.8792 19.7237C30.176 19.3925 31.4923 19.2854 32.8199 19.3649C34.0323 19.4372 35.2146 19.6896 36.3587 20.1134C37.2292 20.4356 38.0599 20.835 38.837 21.34C39.7343 21.9236 40.5528 22.6047 41.2812 23.3921C41.848 24.0042 42.3473 24.6658 42.7793 25.3785C43.3908 26.3884 43.8658 27.4575 44.1768 28.5996C44.483 29.7231 44.664 30.8628 44.6494 32.031L44.6502 32.0277ZM24.1987 23.1843C24.6519 23.1884 24.932 22.9229 24.9385 22.4829C24.9434 22.1136 24.6153 21.7718 24.2523 21.7669C23.8553 21.7621 23.5256 22.0827 23.5191 22.4797C23.5126 22.9067 23.7765 23.1802 24.1987 23.1843Z" fill="white" stroke="white" stroke-width="0.5"/>
<path d="M19.3395 32.0939C19.3249 30.4695 19.5993 29.0538 20.0914 27.6722C20.4495 26.6664 20.9456 25.7369 21.5336 24.8513C21.6513 24.6743 21.7495 24.6743 21.9136 24.7977C22.3017 25.0907 22.3163 25.0883 22.0524 25.5007C21.5563 26.2759 21.1348 27.0877 20.8295 27.9563C20.4333 29.083 20.1962 30.2374 20.1515 31.438C20.1182 32.3163 20.1564 33.1865 20.3082 34.0462C20.5331 35.315 20.953 36.5229 21.5717 37.6578C22.0549 38.5426 22.6387 39.3544 23.3273 40.0906C24.8109 41.6768 26.5997 42.7597 28.6834 43.371C30.0833 43.7818 31.5141 43.9214 32.9562 43.8053C34.6273 43.6714 36.2213 43.2168 37.6919 42.3847C37.7292 42.3636 37.769 42.3457 37.8072 42.3279C38.1702 42.155 38.1791 42.1404 38.1466 41.7531C38.076 40.9146 38.6257 40.2197 39.4597 40.0923C40.2108 39.977 40.9692 40.5006 41.1373 41.249C41.2786 41.879 41.0342 42.4918 40.495 42.8628C40.011 43.1957 39.3273 43.1924 38.8157 42.8442C38.7029 42.767 38.616 42.7735 38.5039 42.8417C37.3557 43.5407 36.1141 44.0001 34.81 44.3175C33.5344 44.6276 32.2384 44.6828 30.9465 44.587C28.8474 44.4304 26.8977 43.7728 25.1243 42.6225C23.6935 41.6939 22.4925 40.5249 21.5327 39.1189C20.7524 37.9752 20.1759 36.7323 19.808 35.3929C19.4978 34.2613 19.3127 33.1159 19.3395 32.0947V32.0939ZM40.3821 41.5802C40.3797 41.2003 40.0427 40.8634 39.6667 40.8642C39.2713 40.8642 38.927 41.2109 38.9278 41.6062C38.9278 41.9821 39.2851 42.3246 39.6692 42.3181C40.0557 42.3116 40.3854 41.9707 40.3829 41.5802H40.3821Z" fill="white" stroke="white" stroke-width="0.5"/>
<defs>
<filter id="filter0_d_378_4031" x="-8.2" y="-8.2" width="80.4" height="80.4" filterUnits="userSpaceOnUse" color-interpolation-filters="sRGB">
<feFlood flood-opacity="0" result="BackgroundImageFix"/>
<feColorMatrix in="SourceAlpha" type="matrix" values="0 0 0 0 0 0 0 0 0 0 0 0 0 0 0 0 0 0 127 0" result="hardAlpha"/>
<feMorphology radius="0.2" operator="dilate" in="SourceAlpha" result="effect1_dropShadow_378_4031"/>
<feOffset/>
<feGaussianBlur stdDeviation="4"/>
<feComposite in2="hardAlpha" operator="out"/>
<feColorMatrix type="matrix" values="0 0 0 0 1 0 0 0 0 0.65098 0 0 0 0 0.533333 0 0 0 1 0"/>
<feBlend mode="normal" in2="BackgroundImageFix" result="effect1_dropShadow_378_4031"/>
<feBlend mode="normal" in="SourceGraphic" in2="effect1_dropShadow_378_4031" result="shape"/>
</filter>
</defs>
</svg>
