<svg width="48" height="612" viewBox="0 0 48 612" fill="none" xmlns="http://www.w3.org/2000/svg">
<line x1="24.375" y1="-1.6029e-08" x2="24.375" y2="188" stroke="white" stroke-width="0.75"/>
<line x1="24.375" y1="424" x2="24.375" y2="612" stroke="white" stroke-width="0.75"/>
<path d="M38 223.451V234.85C38.0001 236.012 37.5554 237.13 36.7573 237.975C35.9591 238.82 34.8679 239.327 33.7076 239.393L33.45 239.4H14.55C13.3878 239.4 12.2696 238.955 11.4249 238.157C10.5801 237.359 10.0728 236.268 10.007 235.108L10 234.85V223.451L23.5128 230.53C23.6631 230.608 23.8303 230.649 24 230.649C24.1697 230.649 24.3369 230.608 24.4872 230.53L38 223.451Z" fill="#E3E4E6" fill-opacity="0.55"/>
<path d="M14.5491 217H33.4491C34.5769 217 35.6646 217.419 36.5011 218.175C37.3377 218.931 37.8636 219.971 37.9767 221.094L23.9991 228.416L10.0215 221.094C10.13 220.016 10.6194 219.013 11.4015 218.263C12.1837 217.514 13.2074 217.069 14.2887 217.007L14.5491 217H33.4491H14.5491Z" fill="#E3E4E6" fill-opacity="0.55"/>
<path fill-rule="evenodd" clip-rule="evenodd" d="M20.4004 275.782H25.6V278.113C26.349 276.772 28.2698 275.567 31.1552 275.567C36.6866 275.567 37.9998 278.236 37.9998 283.132V292.201H32.3998V284.248C32.3998 281.459 31.6508 279.887 29.744 279.887C27.0994 279.887 26.0004 281.581 26.0004 284.246V292.201H20.4004V275.782V275.782Z" fill="#E3E4E6" fill-opacity="0.55"/>
<path fill-rule="evenodd" clip-rule="evenodd" d="M10.7988 291.986H16.3988V275.567H10.7988V291.986V291.986Z" fill="#E3E4E6" fill-opacity="0.55"/>
<path fill-rule="evenodd" clip-rule="evenodd" d="M17.2002 270.213C17.2004 270.635 17.1073 271.054 16.9263 271.444C16.7454 271.833 16.4801 272.187 16.146 272.484C15.469 273.089 14.5525 273.428 13.598 273.426C12.6451 273.425 11.7308 273.087 11.0528 272.485C10.7199 272.187 10.4555 271.833 10.2749 271.443C10.0942 271.053 10.0008 270.635 10 270.213C10 269.36 10.378 268.544 11.0542 267.941C11.7316 267.338 12.6463 267 13.5994 267C14.5542 267 15.4698 267.339 16.146 267.941C16.8208 268.544 17.2002 269.36 17.2002 270.213Z" fill="#E3E4E6" fill-opacity="0.55"/>
<path fill-rule="evenodd" clip-rule="evenodd" d="M12 323.429C12 321.535 13.535 320 15.4286 320H16.9961C17.9794 320 18.8365 320.669 19.075 321.623L20.3388 326.678C20.5479 327.515 20.2354 328.395 19.5456 328.912L18.0672 330.021C17.9137 330.136 17.8803 330.305 17.9234 330.422C19.2212 333.965 22.0349 336.779 25.5775 338.077C25.6952 338.12 25.8638 338.086 25.979 337.933L27.0878 336.454C27.6051 335.765 28.4854 335.452 29.3218 335.661L34.3769 336.925C35.3308 337.163 36 338.021 36 339.004V340.571C36 342.465 34.465 344 32.5714 344H30C20.0589 344 12 335.941 12 326V323.429Z" fill="#E3E4E6" fill-opacity="0.55"/>
<path d="M33.9196 374.074C32.6296 372.778 31.0931 371.75 29.3997 371.05C27.7063 370.351 25.8898 369.994 24.0563 370C16.3739 370 10.1126 376.23 10.1126 383.874C10.1126 386.324 10.7598 388.704 11.9698 390.804L10 398L17.3869 396.068C19.4271 397.174 21.7206 397.762 24.0563 397.762C31.7387 397.762 38 391.532 38 383.888C38 380.178 36.5508 376.692 33.9196 374.074ZM24.0563 395.41C21.9739 395.41 19.9337 394.85 18.1467 393.8L17.7246 393.548L13.3347 394.696L14.5025 390.44L14.2211 390.006C13.0642 388.168 12.4498 386.043 12.4482 383.874C12.4482 377.518 17.6543 372.338 24.0422 372.338C27.1377 372.338 30.0503 373.542 32.2312 375.726C33.311 376.796 34.1668 378.068 34.7489 379.469C35.331 380.87 35.6278 382.372 35.6221 383.888C35.6503 390.244 30.4442 395.41 24.0563 395.41ZM30.4161 386.786C30.0643 386.618 28.3477 385.778 28.0382 385.652C27.7146 385.54 27.4894 385.484 27.2503 385.82C27.0111 386.17 26.3497 386.954 26.1528 387.178C25.9558 387.416 25.7447 387.444 25.393 387.262C25.0412 387.094 23.9156 386.716 22.593 385.54C21.5518 384.616 20.8623 383.482 20.6513 383.132C20.4543 382.782 20.6231 382.6 20.806 382.418C20.9608 382.264 21.1578 382.012 21.3266 381.816C21.4955 381.62 21.5658 381.466 21.6784 381.242C21.791 381.004 21.7347 380.808 21.6503 380.64C21.5658 380.472 20.8623 378.764 20.5809 378.064C20.2995 377.392 20.004 377.476 19.793 377.462H19.1176C18.8784 377.462 18.5126 377.546 18.1889 377.896C17.8794 378.246 16.9789 379.086 16.9789 380.794C16.9789 382.502 18.2312 384.154 18.4 384.378C18.5688 384.616 20.8623 388.116 24.3518 389.614C25.1819 389.978 25.8291 390.188 26.3357 390.342C27.1658 390.608 27.9256 390.566 28.5307 390.482C29.206 390.384 30.599 389.642 30.8804 388.83C31.1759 388.018 31.1759 387.332 31.0774 387.178C30.9789 387.024 30.7678 386.954 30.4161 386.786Z" fill="#E3E4E6" fill-opacity="0.55"/>
</svg>
