<svg width="24" height="24" viewBox="0 0 24 24" fill="none" xmlns="http://www.w3.org/2000/svg">
<path d="M23 21.4531V9.76562C23 9.55216 22.9503 9.34163 22.8548 9.15071C22.7594 8.95978 22.6208 8.7937 22.45 8.66562L12.825 1.44687C12.587 1.26837 12.2975 1.17188 12 1.17188C11.7025 1.17188 11.413 1.26837 11.175 1.44687L1.55 8.66562C1.37923 8.7937 1.24063 8.95978 1.14516 9.15071C1.0497 9.34163 1 9.55216 1 9.76562V21.4531C1 21.8178 1.14487 22.1675 1.40273 22.4254C1.66059 22.6833 2.01033 22.8281 2.375 22.8281H7.875C8.23967 22.8281 8.58941 22.6833 8.84727 22.4254C9.10513 22.1675 9.25 21.8178 9.25 21.4531V17.3281C9.25 16.9635 9.39487 16.6137 9.65273 16.3559C9.91059 16.098 10.2603 15.9531 10.625 15.9531H13.375C13.7397 15.9531 14.0894 16.098 14.3473 16.3559C14.6051 16.6137 14.75 16.9635 14.75 17.3281V21.4531C14.75 21.8178 14.8949 22.1675 15.1527 22.4254C15.4106 22.6833 15.7603 22.8281 16.125 22.8281H21.625C21.9897 22.8281 22.3394 22.6833 22.5973 22.4254C22.8551 22.1675 23 21.8178 23 21.4531Z" stroke="#CACACA" stroke-width="2" stroke-linecap="round" stroke-linejoin="round"/>
</svg>
